<svg xmlns="http://www.w3.org/2000/svg" xmlns:xlink="http://www.w3.org/1999/xlink" width="500" zoomAndPan="magnify" viewBox="0 0 375 374.999991" height="500" preserveAspectRatio="xMidYMid meet" version="1.0"><defs><clipPath id="f7c28a7280"><path d="M 202.652344 96.820312 L 241.089844 96.820312 L 241.089844 135.257812 L 202.652344 135.257812 Z M 202.652344 96.820312 " clip-rule="nonzero"/></clipPath><clipPath id="6fe1950709"><path d="M 221.871094 96.820312 C 211.253906 96.820312 202.652344 105.425781 202.652344 116.039062 C 202.652344 126.65625 211.253906 135.257812 221.871094 135.257812 C 232.484375 135.257812 241.089844 126.65625 241.089844 116.039062 C 241.089844 105.425781 232.484375 96.820312 221.871094 96.820312 Z M 221.871094 96.820312 " clip-rule="nonzero"/></clipPath></defs><path fill="#ffffff" d="M 356.6875 169.476562 C 356.6875 169.476562 371.703125 171.515625 372.628906 161.316406 C 373.554688 151.121094 370.585938 130.546875 364.660156 127.949219 C 358.722656 125.355469 358.910156 146.117188 358.910156 146.117188 L 356.6875 169.476562 " fill-opacity="1" fill-rule="nonzero"/><path fill="#4d4d4d" d="M 356.6875 169.476562 L 356.40625 171.515625 C 356.476562 171.523438 357.785156 171.703125 359.6875 171.703125 C 362.0625 171.691406 365.363281 171.449219 368.414062 170.089844 C 369.9375 169.40625 371.40625 168.410156 372.558594 166.980469 C 373.707031 165.546875 374.488281 163.6875 374.675781 161.503906 C 374.796875 160.195312 374.855469 158.753906 374.855469 157.214844 C 374.851562 151.628906 374.109375 144.78125 372.683594 138.898438 C 371.960938 135.957031 371.078125 133.261719 369.96875 131.042969 C 369.410156 129.933594 368.792969 128.9375 368.074219 128.085938 C 367.355469 127.238281 366.515625 126.519531 365.484375 126.0625 C 364.921875 125.8125 364.304688 125.664062 363.671875 125.664062 C 363.082031 125.664062 362.492188 125.800781 361.984375 126.039062 C 361.023438 126.492188 360.371094 127.222656 359.867188 127.988281 C 358.992188 129.34375 358.484375 130.957031 358.074219 132.714844 C 357.472656 135.347656 357.179688 138.296875 357.019531 140.777344 C 356.863281 143.253906 356.851562 145.253906 356.851562 145.910156 C 356.851562 146.070312 356.851562 146.164062 356.855469 146.1875 L 358.910156 146.117188 L 356.859375 145.921875 L 354.636719 169.28125 C 354.53125 170.382812 355.3125 171.367188 356.40625 171.515625 L 356.6875 169.476562 L 358.738281 169.671875 L 360.960938 146.3125 L 360.96875 146.046875 L 360.601562 146.058594 L 360.96875 146.050781 L 360.96875 146.046875 L 360.601562 146.058594 L 360.96875 146.050781 L 360.96875 145.910156 C 360.964844 144.949219 361.003906 140.460938 361.59375 136.351562 C 361.886719 134.300781 362.332031 132.339844 362.871094 131.089844 C 363.136719 130.46875 363.425781 130.042969 363.597656 129.878906 L 363.726562 129.769531 L 363.671875 129.652344 L 363.671875 129.78125 L 363.726562 129.769531 L 363.671875 129.652344 L 363.671875 129.78125 L 363.671875 129.773438 L 363.671875 129.78125 L 363.671875 129.773438 L 363.671875 129.78125 C 363.679688 129.78125 363.730469 129.789062 363.832031 129.835938 C 364.105469 129.953125 364.5 130.234375 364.933594 130.753906 C 365.707031 131.644531 366.542969 133.210938 367.265625 135.164062 C 368.363281 138.101562 369.25 141.914062 369.835938 145.832031 C 370.429688 149.753906 370.734375 153.792969 370.734375 157.214844 C 370.734375 158.652344 370.683594 159.980469 370.578125 161.132812 C 370.4375 162.59375 369.988281 163.589844 369.339844 164.402344 C 368.855469 165.015625 368.234375 165.519531 367.496094 165.941406 C 366.394531 166.578125 365.023438 167.003906 363.628906 167.253906 C 362.242188 167.503906 360.839844 167.582031 359.6875 167.582031 C 358.859375 167.582031 358.164062 167.542969 357.679688 167.507812 C 357.441406 167.488281 357.253906 167.464844 357.128906 167.453125 L 356.992188 167.4375 L 356.964844 167.433594 L 356.6875 169.476562 L 358.738281 169.671875 L 356.6875 169.476562 " fill-opacity="1" fill-rule="nonzero"/><path fill="#ffffff" d="M 340.742188 126.367188 C 340.742188 126.367188 354.085938 111.257812 360.023438 138.230469 C 365.953125 165.210938 359.28125 188.199219 340.742188 181.523438 L 340.742188 126.367188 " fill-opacity="1" fill-rule="nonzero"/><path fill="#4d4d4d" d="M 340.742188 126.367188 L 342.285156 127.730469 L 341.457031 127 L 342.28125 127.734375 L 342.285156 127.730469 L 341.457031 127 L 342.28125 127.734375 C 342.28125 127.734375 342.328125 127.679688 342.429688 127.578125 C 342.773438 127.222656 343.703125 126.320312 344.90625 125.554688 C 345.507812 125.179688 346.167969 124.828125 346.839844 124.585938 C 347.515625 124.347656 348.195312 124.207031 348.855469 124.210938 C 349.542969 124.210938 350.210938 124.347656 350.929688 124.707031 C 351.996094 125.25 353.242188 126.359375 354.503906 128.574219 C 355.761719 130.773438 356.996094 134.042969 358.011719 138.675781 C 359.386719 144.933594 360.066406 150.964844 360.066406 156.394531 C 360.074219 163.78125 358.789062 170.066406 356.472656 174.269531 C 355.3125 176.378906 353.929688 177.957031 352.351562 179.011719 C 350.769531 180.0625 348.992188 180.625 346.832031 180.632812 C 345.246094 180.632812 343.453125 180.316406 341.441406 179.585938 L 340.742188 181.523438 L 342.800781 181.523438 L 342.800781 126.367188 L 340.742188 126.367188 L 342.285156 127.730469 L 340.742188 126.367188 L 338.683594 126.367188 L 338.683594 181.523438 C 338.683594 182.398438 339.226562 183.171875 340.046875 183.464844 C 342.425781 184.320312 344.695312 184.75 346.832031 184.75 C 349.742188 184.753906 352.402344 183.933594 354.640625 182.4375 C 356.316406 181.316406 357.753906 179.832031 358.957031 178.082031 C 360.757812 175.457031 362.050781 172.234375 362.90625 168.578125 C 363.761719 164.917969 364.179688 160.8125 364.183594 156.394531 C 364.183594 150.621094 363.464844 144.316406 362.035156 137.789062 C 360.585938 131.246094 358.714844 126.949219 356.464844 124.128906 C 355.339844 122.726562 354.101562 121.699219 352.792969 121.035156 C 351.488281 120.367188 350.132812 120.085938 348.855469 120.089844 C 347.429688 120.089844 346.113281 120.429688 344.960938 120.902344 C 343.226562 121.617188 341.828125 122.625 340.828125 123.453125 C 339.835938 124.285156 339.25 124.949219 339.195312 125.003906 C 338.867188 125.378906 338.683594 125.867188 338.683594 126.367188 L 340.742188 126.367188 " fill-opacity="1" fill-rule="nonzero"/><path fill="#ffffff" d="M 72.492188 103.722656 C 72.492188 103.722656 60.566406 58.714844 62.25 41.527344 C 63.929688 24.335938 71.59375 32.09375 74.9375 36.429688 C 78.277344 40.765625 110.984375 55.671875 116.566406 69.03125 C 116.566406 69.03125 93.835938 96.445312 72.492188 103.722656 " fill-opacity="1" fill-rule="nonzero"/><path fill="#4d4d4d" d="M 72.492188 103.722656 L 74.480469 103.195312 C 74.480469 103.195312 74.441406 103.046875 74.367188 102.753906 C 73.800781 100.585938 71.238281 90.601562 68.820312 78.949219 C 67.609375 73.121094 66.433594 66.878906 65.570312 60.996094 C 64.703125 55.113281 64.144531 49.585938 64.144531 45.257812 C 64.144531 43.960938 64.195312 42.769531 64.296875 41.726562 C 64.667969 37.839844 65.390625 35.402344 66.089844 34.171875 C 66.433594 33.554688 66.75 33.25 66.960938 33.109375 C 67.175781 32.96875 67.296875 32.941406 67.515625 32.933594 C 67.757812 32.933594 68.144531 33.019531 68.628906 33.261719 C 69.355469 33.621094 70.242188 34.3125 71.066406 35.128906 C 71.898438 35.945312 72.683594 36.878906 73.304688 37.6875 C 73.671875 38.15625 74.089844 38.539062 74.582031 38.949219 C 75.5 39.707031 76.695312 40.523438 78.140625 41.453125 C 80.671875 43.070312 83.957031 45.011719 87.546875 47.195312 C 92.933594 50.464844 99.007812 54.28125 104.09375 58.238281 C 106.636719 60.21875 108.933594 62.234375 110.761719 64.203125 C 112.597656 66.167969 113.949219 68.097656 114.667969 69.824219 L 116.566406 69.03125 L 114.980469 67.71875 L 114.925781 67.785156 C 114.285156 68.550781 108.496094 75.386719 100.351562 82.863281 C 96.277344 86.597656 91.617188 90.5 86.730469 93.871094 C 81.847656 97.25 76.738281 100.101562 71.828125 101.769531 L 72.492188 103.722656 L 74.480469 103.195312 L 72.492188 103.722656 L 73.15625 105.671875 C 78.761719 103.757812 84.324219 100.585938 89.566406 96.917969 C 97.417969 91.414062 104.535156 84.792969 109.714844 79.53125 C 114.890625 74.273438 118.125 70.375 118.152344 70.34375 C 118.640625 69.753906 118.761719 68.945312 118.46875 68.238281 C 117.65625 66.296875 116.410156 64.449219 114.882812 62.644531 C 112.207031 59.480469 108.625 56.441406 104.714844 53.542969 C 98.84375 49.199219 92.203125 45.195312 86.777344 41.917969 C 84.066406 40.285156 81.65625 38.832031 79.828125 37.636719 C 78.914062 37.042969 78.144531 36.507812 77.574219 36.070312 C 77.007812 35.640625 76.632812 35.265625 76.566406 35.167969 C 75.625 33.949219 74.363281 32.472656 72.894531 31.21875 C 72.152344 30.59375 71.351562 30.023438 70.472656 29.578125 C 69.589844 29.140625 68.605469 28.820312 67.515625 28.816406 C 66.554688 28.8125 65.523438 29.101562 64.652344 29.695312 C 64 30.140625 63.433594 30.730469 62.953125 31.429688 C 62.230469 32.480469 61.671875 33.777344 61.222656 35.398438 C 60.773438 37.019531 60.429688 38.964844 60.199219 41.324219 L 60.203125 41.324219 C 60.078125 42.539062 60.023438 43.855469 60.023438 45.257812 C 60.027344 50.238281 60.691406 56.359375 61.679688 62.796875 C 64.628906 82.09375 70.492188 104.210938 70.5 104.246094 C 70.648438 104.800781 71.015625 105.265625 71.519531 105.535156 C 72.023438 105.808594 72.613281 105.855469 73.15625 105.671875 L 72.492188 103.722656 " fill-opacity="1" fill-rule="nonzero"/><path fill="#ffffff" d="M 349.640625 167.410156 C 349.640625 71.789062 277.867188 45.363281 197.863281 45.363281 C 123.277344 45.363281 61.878906 84.6875 53.917969 157.742188 C 47.503906 157.269531 36.941406 158.589844 27.066406 169.417969 C 22.292969 174.644531 14.457031 163.234375 5.074219 170.152344 C 0.179688 173.769531 2.84375 224.78125 17.175781 234.175781 C 17.175781 234.175781 28.550781 238.625 32.503906 238.132812 C 32.503906 238.132812 31.519531 244.558594 34.976562 250.492188 C 37.144531 254.207031 68.230469 276.601562 114.964844 290.976562 C 117.742188 299.332031 127.410156 328.363281 130.882812 339.109375 C 130.882812 339.109375 149.054688 347.265625 172.78125 339.109375 L 180.308594 302.789062 C 190.722656 303.351562 201.449219 303.320312 212.457031 302.472656 L 212.453125 302.46875 C 220.617188 301.957031 228.644531 300.984375 236.472656 299.574219 C 240.523438 311.75 246.855469 330.84375 249.535156 339.109375 C 249.535156 339.109375 267.699219 347.265625 291.433594 339.109375 L 312.691406 263.261719 L 312.628906 263.285156 C 335.425781 241.410156 349.640625 209.933594 349.640625 167.410156 " fill-opacity="1" fill-rule="nonzero"/><path fill="#4d4d4d" d="M 349.640625 167.410156 L 351.699219 167.410156 C 351.703125 143.25 347.164062 123.332031 339.015625 107.078125 C 332.910156 94.886719 324.777344 84.773438 315.085938 76.492188 C 300.542969 64.070312 282.523438 55.78125 262.519531 50.589844 C 242.507812 45.398438 220.496094 43.304688 197.863281 43.300781 C 160.214844 43.304688 125.78125 53.222656 99.683594 72.5 C 86.632812 82.136719 75.683594 94.117188 67.496094 108.332031 C 59.304688 122.546875 53.886719 138.992188 51.871094 157.519531 L 53.917969 157.742188 L 54.070312 155.6875 C 53.335938 155.632812 52.554688 155.601562 51.726562 155.601562 C 48.265625 155.601562 44.03125 156.160156 39.5 158.003906 C 34.964844 159.847656 30.148438 162.980469 25.542969 168.027344 C 25.246094 168.351562 24.996094 168.511719 24.753906 168.617188 C 24.503906 168.722656 24.238281 168.773438 23.871094 168.777344 C 23.363281 168.777344 22.667969 168.648438 21.84375 168.398438 C 20.609375 168.027344 19.105469 167.398438 17.414062 166.839844 C 15.722656 166.285156 13.816406 165.792969 11.71875 165.792969 C 9.222656 165.78125 6.480469 166.539062 3.851562 168.496094 C 3.378906 168.851562 3.0625 169.257812 2.800781 169.675781 C 2.355469 170.410156 2.070312 171.21875 1.816406 172.152344 C 1.445312 173.546875 1.191406 175.230469 1.019531 177.183594 C 0.847656 179.132812 0.761719 181.347656 0.757812 183.757812 C 0.761719 192.347656 1.851562 203.410156 4.230469 213.292969 C 5.421875 218.230469 6.9375 222.875 8.847656 226.789062 C 10.765625 230.699219 13.054688 233.917969 16.046875 235.898438 C 16.171875 235.976562 16.285156 236.039062 16.425781 236.09375 C 16.449219 236.101562 19.03125 237.113281 22.203125 238.132812 C 23.792969 238.644531 25.527344 239.15625 27.1875 239.550781 C 28.851562 239.9375 30.410156 240.222656 31.820312 240.226562 C 32.136719 240.226562 32.445312 240.210938 32.75 240.175781 L 32.503906 238.132812 L 30.46875 237.816406 C 30.457031 237.898438 30.3125 238.847656 30.3125 240.34375 C 30.316406 242.957031 30.734375 247.289062 33.195312 251.527344 C 33.488281 252.015625 33.8125 252.386719 34.230469 252.828125 C 35.015625 253.640625 36.121094 254.605469 37.59375 255.765625 C 42.71875 259.800781 52.226562 266.101562 65.320312 272.910156 C 78.40625 279.714844 95.054688 287.003906 114.355469 292.945312 L 114.964844 290.976562 L 113.011719 291.625 C 115.789062 299.980469 125.457031 329.019531 128.921875 339.738281 C 129.101562 340.289062 129.507812 340.746094 130.039062 340.988281 C 130.21875 341.0625 138.554688 344.785156 151.375 344.789062 C 157.777344 344.789062 165.304688 343.855469 173.449219 341.054688 C 174.136719 340.816406 174.648438 340.238281 174.796875 339.523438 L 182.320312 303.207031 L 180.308594 302.789062 L 180.195312 304.84375 C 184.789062 305.09375 189.449219 305.226562 194.167969 305.226562 C 200.21875 305.226562 206.371094 305.003906 212.613281 304.523438 C 213.539062 304.453125 214.300781 303.777344 214.476562 302.867188 C 214.65625 301.960938 214.207031 301.042969 213.378906 300.632812 L 213.375 300.628906 L 212.453125 302.46875 L 212.582031 304.523438 C 220.824219 304.007812 228.925781 303.019531 236.839844 301.601562 L 236.472656 299.574219 L 234.519531 300.222656 C 238.566406 312.398438 244.902344 331.496094 247.570312 339.738281 C 247.753906 340.292969 248.160156 340.746094 248.6875 340.988281 C 248.867188 341.0625 257.203125 344.785156 270.019531 344.789062 C 276.429688 344.789062 283.953125 343.855469 292.097656 341.054688 C 292.734375 340.832031 293.230469 340.3125 293.410156 339.664062 L 314.675781 263.816406 C 314.878906 263.078125 314.65625 262.277344 314.09375 261.753906 C 313.53125 261.230469 312.714844 261.0625 311.992188 261.324219 L 311.933594 261.347656 L 312.628906 263.285156 L 314.050781 264.769531 C 325.652344 253.640625 335.082031 240.046875 341.59375 223.859375 C 348.105469 207.671875 351.699219 188.898438 351.699219 167.410156 L 347.582031 167.410156 C 347.582031 188.441406 344.066406 206.671875 337.773438 222.320312 C 331.476562 237.972656 322.398438 251.054688 311.199219 261.796875 C 310.5 262.46875 310.363281 263.542969 310.875 264.367188 C 311.390625 265.191406 312.410156 265.550781 313.324219 265.222656 L 313.386719 265.199219 L 312.691406 263.261719 L 310.710938 262.707031 L 289.445312 338.550781 L 291.433594 339.109375 L 290.761719 337.160156 C 283.082031 339.796875 276.027344 340.671875 270.019531 340.671875 C 264.015625 340.671875 259.058594 339.796875 255.625 338.921875 C 253.914062 338.488281 252.574219 338.054688 251.679688 337.734375 C 251.230469 337.574219 250.898438 337.445312 250.675781 337.355469 C 250.5625 337.3125 250.484375 337.273438 250.433594 337.253906 L 250.382812 337.230469 L 250.371094 337.226562 L 250.125 337.78125 L 250.375 337.226562 L 250.371094 337.226562 L 250.125 337.78125 L 250.375 337.226562 L 249.535156 339.109375 L 251.492188 338.472656 C 248.808594 330.191406 242.476562 311.105469 238.425781 298.921875 C 238.101562 297.953125 237.117188 297.367188 236.109375 297.546875 C 228.351562 298.941406 220.40625 299.90625 212.324219 300.414062 C 211.390625 300.472656 210.621094 301.148438 210.433594 302.058594 C 210.25 302.972656 210.699219 303.894531 211.53125 304.3125 L 211.535156 304.3125 L 212.457031 302.472656 L 212.300781 300.417969 C 206.167969 300.890625 200.125 301.105469 194.167969 301.105469 C 189.527344 301.105469 184.941406 300.976562 180.417969 300.734375 C 179.402344 300.675781 178.496094 301.371094 178.292969 302.371094 L 170.765625 338.6875 L 172.78125 339.109375 L 172.109375 337.160156 C 164.433594 339.796875 157.378906 340.671875 151.375 340.671875 C 145.367188 340.671875 140.410156 339.796875 136.976562 338.921875 C 135.265625 338.488281 133.925781 338.054688 133.03125 337.734375 C 132.582031 337.574219 132.246094 337.445312 132.027344 337.355469 C 131.914062 337.3125 131.832031 337.273438 131.785156 337.253906 L 131.734375 337.230469 L 131.722656 337.226562 L 131.476562 337.78125 L 131.726562 337.226562 L 131.722656 337.226562 L 131.476562 337.78125 L 131.726562 337.226562 L 130.882812 339.109375 L 132.84375 338.472656 C 129.359375 327.710938 119.699219 298.6875 116.917969 290.324219 C 116.707031 289.691406 116.207031 289.203125 115.570312 289.007812 C 92.363281 281.875 73.039062 272.738281 59.269531 264.945312 C 52.386719 261.046875 46.894531 257.484375 43.019531 254.691406 C 41.085938 253.296875 39.546875 252.089844 38.464844 251.148438 C 37.925781 250.683594 37.496094 250.28125 37.199219 249.972656 C 37.050781 249.816406 36.933594 249.6875 36.859375 249.589844 L 36.773438 249.480469 L 36.753906 249.453125 C 34.808594 246.136719 34.425781 242.511719 34.429688 240.34375 C 34.429688 239.730469 34.460938 239.230469 34.488281 238.902344 C 34.5 238.738281 34.519531 238.613281 34.527344 238.535156 L 34.539062 238.449219 L 34.539062 238.4375 L 33.8125 238.335938 L 34.539062 238.445312 L 34.539062 238.4375 L 33.8125 238.335938 L 34.539062 238.445312 C 34.632812 237.808594 34.433594 237.164062 33.984375 236.699219 C 33.53125 236.234375 32.898438 236.011719 32.257812 236.085938 C 32.140625 236.101562 31.992188 236.109375 31.820312 236.109375 C 31.007812 236.113281 29.628906 235.902344 28.132812 235.539062 C 25.875 235.007812 23.300781 234.183594 21.3125 233.492188 C 20.320312 233.152344 19.464844 232.835938 18.867188 232.617188 C 18.566406 232.503906 18.328125 232.414062 18.167969 232.351562 C 18.007812 232.289062 17.925781 232.257812 17.925781 232.257812 L 17.175781 234.175781 L 18.304688 232.457031 C 16.273438 231.140625 14.261719 228.519531 12.546875 224.984375 C 9.957031 219.691406 8.003906 212.457031 6.742188 205.027344 C 5.476562 197.589844 4.875 189.9375 4.878906 183.757812 C 4.875 180.242188 5.074219 177.191406 5.433594 174.992188 C 5.605469 173.898438 5.824219 173.007812 6.039062 172.433594 C 6.144531 172.148438 6.242188 171.9375 6.3125 171.832031 L 6.367188 171.75 L 6.050781 171.476562 L 6.296875 171.808594 L 6.367188 171.75 L 6.050781 171.476562 L 6.296875 171.808594 C 8.292969 170.351562 9.996094 169.921875 11.71875 169.910156 C 13.640625 169.902344 15.625 170.539062 17.625 171.273438 C 18.625 171.644531 19.625 172.027344 20.652344 172.339844 C 21.679688 172.644531 22.734375 172.890625 23.871094 172.894531 C 24.683594 172.894531 25.535156 172.757812 26.355469 172.410156 C 27.179688 172.066406 27.9375 171.515625 28.585938 170.804688 C 32.804688 166.183594 37.078125 163.4375 41.046875 161.820312 C 45.023438 160.203125 48.710938 159.722656 51.726562 159.71875 C 52.445312 159.71875 53.128906 159.746094 53.769531 159.792969 C 54.875 159.875 55.84375 159.070312 55.964844 157.964844 C 57.925781 139.964844 63.167969 124.09375 71.0625 110.386719 C 82.90625 89.835938 100.726562 74.121094 122.539062 63.507812 C 144.355469 52.898438 170.164062 47.417969 197.863281 47.421875 C 217.753906 47.417969 237.097656 49.0625 254.886719 52.996094 C 268.234375 55.945312 280.699219 60.175781 291.878906 65.949219 C 308.652344 74.609375 322.515625 86.710938 332.25 103.242188 C 341.972656 119.777344 347.582031 140.800781 347.582031 167.410156 L 349.640625 167.410156 " fill-opacity="1" fill-rule="nonzero"/><path fill="#4d4d4d" d="M 242.09375 59.191406 C 229.089844 57.125 215.417969 56.234375 201.488281 56.234375 C 191.011719 56.234375 180.816406 57.089844 171.039062 58.792969 C 169.914062 58.988281 169.167969 60.058594 169.359375 61.175781 C 169.558594 62.296875 170.625 63.046875 171.746094 62.851562 C 181.28125 61.191406 191.238281 60.351562 201.488281 60.351562 C 215.238281 60.351562 228.703125 61.230469 241.445312 63.257812 C 242.570312 63.4375 243.625 62.671875 243.804688 61.550781 C 243.980469 60.425781 243.214844 59.371094 242.09375 59.191406 " fill-opacity="1" fill-rule="nonzero"/><path fill="#4d4d4d" d="M 95.289062 154.332031 C 95.289062 160.75 90.089844 165.953125 83.671875 165.953125 C 77.257812 165.953125 72.046875 160.75 72.046875 154.332031 C 72.046875 147.917969 77.257812 142.71875 83.671875 142.71875 C 90.089844 142.71875 95.289062 147.917969 95.289062 154.332031 " fill-opacity="1" fill-rule="nonzero"/><path fill="#ffffff" d="M 85.648438 93.28125 C 85.648438 93.28125 81.199219 46.9375 85.648438 30.246094 C 90.101562 13.5625 96.402344 22.460938 98.996094 27.285156 C 101.59375 32.105469 131.441406 52.125 134.777344 66.214844 C 134.777344 66.214844 107.894531 89.574219 85.648438 93.28125 " fill-opacity="1" fill-rule="nonzero"/><path fill="#4d4d4d" d="M 85.648438 93.28125 L 87.699219 93.085938 C 87.699219 93.085938 87.667969 92.769531 87.617188 92.175781 C 87.238281 88.007812 85.730469 70.226562 85.730469 54.003906 C 85.730469 49.371094 85.855469 44.867188 86.15625 40.867188 C 86.457031 36.867188 86.949219 33.355469 87.640625 30.78125 C 88.5625 27.277344 89.582031 25.050781 90.4375 23.875 C 90.863281 23.28125 91.238281 22.957031 91.496094 22.800781 C 91.765625 22.644531 91.90625 22.617188 92.070312 22.613281 C 92.28125 22.609375 92.601562 22.691406 93.042969 22.96875 C 93.703125 23.375 94.523438 24.210938 95.261719 25.195312 C 95.996094 26.183594 96.667969 27.304688 97.183594 28.261719 C 97.472656 28.789062 97.816406 29.230469 98.234375 29.710938 C 99.019531 30.609375 100.066406 31.605469 101.34375 32.761719 C 103.574219 34.769531 106.5 37.21875 109.691406 39.957031 C 114.472656 44.0625 119.847656 48.808594 124.226562 53.539062 C 126.414062 55.90625 128.347656 58.269531 129.835938 60.507812 C 131.324219 62.746094 132.34375 64.867188 132.769531 66.6875 L 134.777344 66.214844 L 133.425781 64.660156 L 133.355469 64.722656 C 132.601562 65.371094 125.78125 71.171875 116.527344 77.226562 C 111.902344 80.253906 106.667969 83.339844 101.300781 85.878906 C 95.929688 88.417969 90.429688 90.398438 85.3125 91.25 L 85.648438 93.28125 L 87.699219 93.085938 L 85.648438 93.28125 L 85.988281 95.3125 C 91.824219 94.335938 97.832031 92.109375 103.601562 89.34375 C 120.871094 81.039062 136.046875 67.828125 136.125 67.769531 C 136.703125 67.261719 136.957031 66.488281 136.78125 65.738281 C 136.292969 63.695312 135.367188 61.667969 134.152344 59.640625 C 132.023438 56.085938 128.992188 52.5 125.597656 49.007812 C 120.515625 43.769531 114.613281 38.738281 109.789062 34.621094 C 107.378906 32.570312 105.238281 30.746094 103.628906 29.269531 C 102.824219 28.535156 102.152344 27.882812 101.65625 27.359375 C 101.167969 26.839844 100.859375 26.410156 100.808594 26.304688 C 100.027344 24.863281 98.949219 23.074219 97.582031 21.527344 C 96.890625 20.761719 96.128906 20.046875 95.230469 19.480469 C 94.34375 18.917969 93.273438 18.496094 92.070312 18.496094 C 91.144531 18.492188 90.179688 18.769531 89.339844 19.292969 C 88.074219 20.078125 87.058594 21.316406 86.148438 23.003906 C 85.234375 24.699219 84.417969 26.882812 83.660156 29.714844 C 82.867188 32.703125 82.367188 36.402344 82.050781 40.554688 C 81.734375 44.703125 81.613281 49.300781 81.613281 54.003906 C 81.613281 72.816406 83.597656 93.441406 83.597656 93.480469 C 83.65625 94.050781 83.941406 94.5625 84.394531 94.914062 C 84.847656 95.265625 85.421875 95.40625 85.988281 95.3125 L 85.648438 93.28125 " fill-opacity="1" fill-rule="nonzero"/><path fill="#ffffff" d="M 90.589844 32.660156 C 90.589844 32.660156 87.742188 79.378906 90.589844 86.050781 C 90.589844 86.050781 104.1875 83.640625 112.710938 74.1875 C 112.710938 74.1875 92.007812 26.730469 90.589844 32.660156 " fill-opacity="1" fill-rule="nonzero"/><path fill="#4d4d4d" d="M 90.589844 32.660156 L 88.535156 32.535156 C 88.53125 32.554688 87.269531 53.324219 87.265625 69.242188 C 87.265625 73.226562 87.347656 76.90625 87.546875 79.914062 C 87.648438 81.421875 87.78125 82.761719 87.957031 83.910156 C 88.136719 85.066406 88.339844 86.007812 88.695312 86.859375 C 89.070312 87.738281 90.007812 88.246094 90.949219 88.078125 C 91.046875 88.0625 94.566406 87.433594 99.21875 85.578125 C 103.867188 83.714844 109.664062 80.628906 114.246094 75.5625 C 114.785156 74.964844 114.925781 74.105469 114.601562 73.363281 C 114.59375 73.351562 110.007812 62.828125 104.984375 52.28125 C 102.472656 47.003906 99.855469 41.726562 97.628906 37.714844 C 96.511719 35.703125 95.5 34.019531 94.601562 32.757812 C 94.140625 32.121094 93.722656 31.59375 93.257812 31.140625 C 93.023438 30.910156 92.773438 30.703125 92.449219 30.5 C 92.121094 30.3125 91.683594 30.09375 91.035156 30.085938 C 90.710938 30.085938 90.347656 30.15625 90.019531 30.3125 C 89.519531 30.539062 89.164062 30.921875 88.960938 31.261719 C 88.753906 31.597656 88.652344 31.902344 88.589844 32.1875 C 88.554688 32.300781 88.539062 32.414062 88.535156 32.535156 L 90.589844 32.660156 L 92.59375 33.132812 L 91.4375 32.859375 L 92.3125 33.628906 C 92.5625 33.328125 92.582031 33.15625 92.59375 33.132812 L 91.4375 32.859375 L 92.3125 33.628906 L 91.046875 32.515625 L 91.753906 34.042969 C 91.996094 33.933594 92.1875 33.773438 92.3125 33.628906 L 91.046875 32.515625 L 91.753906 34.042969 L 91.035156 32.492188 L 91.035156 34.203125 C 91.246094 34.207031 91.515625 34.15625 91.753906 34.042969 L 91.035156 32.492188 L 91.035156 34.203125 L 91.035156 32.855469 L 90.328125 34.03125 C 90.390625 34.0625 90.585938 34.195312 91.035156 34.203125 L 91.035156 32.855469 L 90.328125 34.03125 L 90.5625 33.644531 L 90.300781 34.015625 L 90.328125 34.03125 L 90.5625 33.644531 L 90.300781 34.015625 L 90.335938 33.964844 L 90.300781 34.015625 L 90.335938 33.964844 L 90.300781 34.015625 C 90.320312 34.023438 90.578125 34.265625 90.871094 34.652344 C 91.449219 35.378906 92.246094 36.613281 93.144531 38.160156 C 94.726562 40.867188 96.632812 44.550781 98.589844 48.519531 C 101.527344 54.484375 104.59375 61.109375 106.917969 66.242188 C 108.078125 68.8125 109.058594 71.003906 109.746094 72.554688 C 110.089844 73.328125 110.359375 73.941406 110.542969 74.363281 C 110.730469 74.785156 110.828125 75.007812 110.828125 75.007812 L 112.710938 74.1875 L 111.183594 72.808594 C 107.234375 77.195312 101.976562 80.042969 97.6875 81.753906 C 95.550781 82.609375 93.660156 83.179688 92.320312 83.539062 C 91.648438 83.714844 91.113281 83.839844 90.753906 83.914062 C 90.574219 83.957031 90.4375 83.984375 90.351562 84 L 90.253906 84.019531 L 90.230469 84.023438 L 90.589844 86.050781 L 92.484375 85.242188 C 92.363281 84.980469 92.171875 84.253906 92.027344 83.285156 C 91.800781 81.820312 91.636719 79.765625 91.53125 77.359375 C 91.425781 74.953125 91.382812 72.1875 91.382812 69.242188 C 91.382812 61.382812 91.699219 52.261719 92.015625 45.109375 C 92.171875 41.53125 92.328125 38.449219 92.449219 36.261719 C 92.503906 35.167969 92.558594 34.296875 92.589844 33.703125 C 92.625 33.105469 92.644531 32.785156 92.644531 32.785156 L 90.589844 32.660156 L 92.59375 33.132812 L 90.589844 32.660156 " fill-opacity="1" fill-rule="nonzero"/><path fill="#4d4d4d" d="M 70.449219 234.546875 C 52.28125 240.851562 32.503906 238.132812 32.503906 238.132812 C 32.503906 238.132812 31.519531 244.558594 34.976562 250.492188 C 37.128906 254.1875 67.878906 276.351562 114.175781 290.730469 C 72.660156 269.808594 44.496094 245.300781 44.496094 245.300781 C 68.589844 243.816406 70.449219 234.546875 70.449219 234.546875 " fill-opacity="1" fill-rule="nonzero"/><g clip-path="url(#f7c28a7280)"><g clip-path="url(#6fe1950709)"><path fill="#ffffff" d="M 202.652344 96.820312 L 241.089844 96.820312 L 241.089844 135.257812 L 202.652344 135.257812 Z M 202.652344 96.820312 " fill-opacity="1" fill-rule="nonzero"/></g></g></svg>